<svg aria-hidden="true" style="position: absolute; width: 0; height: 0; overflow: hidden;" version="1.1" xmlns="http://www.w3.org/2000/svg" xmlns:xlink="http://www.w3.org/1999/xlink">
<defs>
<symbol id="rotate" viewBox="0 0 32 32">
<path d="M25.919 14.189l-2.391-8.923-2.533 2.533c-4.636-2.921-10.836-2.363-14.875 1.675l1.886 1.886c2.99-2.99 7.503-3.527 11.040-1.612l-2.050 2.050 8.923 2.391z"></path>
<path d="M6.081 17.811l2.391 8.923 2.533-2.533c4.636 2.921 10.837 2.363 14.875-1.675l-1.886-1.886c-2.99 2.99-7.503 3.527-11.040 1.612l2.050-2.050-8.923-2.391z"></path>
</symbol>
<symbol id="down" viewBox="0 0 32 32">
<path d="M19.997 1.36h-8v8h2.668l0.017 16.193-2.459-2.446-1.88 1.891 5.673 5.641 5.641-5.673-1.891-1.88-2.417 2.43-0.017-16.157h2.665v-8zM14.663 4.027h2.667v2.667h-2.667v-2.667z"></path>
</symbol>
<symbol id="left" viewBox="0 0 32 32">
<path d="M7.018 10.343l-5.666 5.647 5.647 5.666 1.889-1.882-2.419-2.427 16.156 0.055-0.012 2.665 8 0.036 0.036-8-8-0.036-0.012 2.668-16.193-0.056 2.457-2.448-1.882-1.889zM27.97 14.758l-0.012 2.667-2.667-0.012 0.012-2.667 2.667 0.012z"></path>
</symbol>
<symbol id="right" viewBox="0 0 32 32">
<path d="M30.649 15.99l-5.647 5.666-1.889-1.882 2.419-2.427-16.157 0.055 0.012 2.665-8 0.036-0.036-8 8-0.036 0.012 2.668 16.193-0.056-2.457-2.448 1.882-1.889 5.666 5.647zM4.030 14.758l0.012 2.667 2.667-0.012-0.012-2.667-2.667 0.012z"></path>
</symbol>
</defs>
</svg>
